<svg width="57" height="55" viewBox="0 0 57 55" fill="none" xmlns="http://www.w3.org/2000/svg">
<g opacity="0.8">
<rect x="0.5" y="0.5" width="55.9031" height="54" rx="9.5" stroke="white"/>
<path d="M37.2913 19.9966C36.7805 19.4856 36.1741 19.0802 35.5066 18.8037C34.8392 18.5271 34.1238 18.3848 33.4013 18.3848C32.6788 18.3848 31.9634 18.5271 31.2959 18.8037C30.6285 19.0802 30.022 19.4856 29.5113 19.9966L28.4513 21.0566L27.3913 19.9966C26.3596 18.9649 24.9603 18.3853 23.5013 18.3853C22.0423 18.3853 20.643 18.9649 19.6113 19.9966C18.5796 21.0283 18 22.4276 18 23.8866C18 25.3456 18.5796 26.7449 19.6113 27.7766L20.6713 28.8366L28.4513 36.6166L36.2313 28.8366L37.2913 27.7766C37.8023 27.2658 38.2076 26.6594 38.4842 25.9919C38.7608 25.3245 38.9031 24.6091 38.9031 23.8866C38.9031 23.1641 38.7608 22.4487 38.4842 21.7812C38.2076 21.1138 37.8023 20.5073 37.2913 19.9966V19.9966Z" stroke="white" stroke-width="2" stroke-linecap="round" stroke-linejoin="round"/>
</g>
</svg>
