<svg width="166" height="26" viewBox="0 0 166 26" fill="none" xmlns="http://www.w3.org/2000/svg">
<path d="M19.2961 21.6953L10.5601 10.3353L18.8481 0.351311H12.0641L5.50408 9.11931V0.351311H7.82013e-05V21.6953H5.50408V15.4553L6.94408 13.6633L12.5441 21.6953H19.2961ZM26.2496 21.6953L35.2416 8.51131V21.6953H40.7776V0.351311H35.0816L26.4416 12.9273V0.351311H20.9376V21.6953H26.2496ZM64.4971 21.6953V0.351311H58.9931V8.31931H50.1291V0.351311H44.6251V21.6953H50.1291V13.1193H58.9931V21.6953H64.4971ZM78.6798 22.0793C85.2078 22.0793 90.0718 17.5353 90.0718 11.0393C90.0718 4.54331 85.2078 -0.000688553 78.6798 -0.000688553C72.1518 -0.000688553 67.2558 4.54331 67.2558 11.0393C67.2558 17.5353 72.1518 22.0793 78.6798 22.0793ZM78.6798 17.2153C75.1278 17.2153 72.8558 14.4953 72.8558 11.0393C72.8558 7.55131 75.1278 4.86331 78.6798 4.86331C82.1998 4.86331 84.4718 7.55131 84.4718 11.0393C84.4718 14.4953 82.1998 17.2153 78.6798 17.2153Z" fill="white"/>
<path d="M91.6598 25.6313H97.1638V21.6953H109.1V25.6313H114.636V16.8953H112.716V0.351311H96.8118L95.5318 11.1673C94.9238 16.0313 93.7078 16.8953 91.6598 17.2153V25.6313ZM101.004 11.5833L101.772 5.15131H107.212V16.8953H98.6678C99.8838 15.6793 100.716 13.9833 101.004 11.5833ZM127.336 22.0793C133.864 22.0793 138.728 17.5353 138.728 11.0393C138.728 4.54331 133.864 -0.000688553 127.336 -0.000688553C120.808 -0.000688553 115.912 4.54331 115.912 11.0393C115.912 17.5353 120.808 22.0793 127.336 22.0793ZM127.336 17.2153C123.784 17.2153 121.512 14.4953 121.512 11.0393C121.512 7.55131 123.784 4.86331 127.336 4.86331C130.856 4.86331 133.128 7.55131 133.128 11.0393C133.128 14.4953 130.856 17.2153 127.336 17.2153ZM165.724 21.6953V0.351311H158.076L153.596 11.9353L149.148 0.351311H141.5V21.6953H147.004V7.80731L152.38 21.6953H154.812L160.22 7.80731V21.6953H165.724Z" fill="#ED0A32"/>
</svg>
